<?xml version="1.0" standalone="no"?>
<!DOCTYPE svg PUBLIC "-//W3C//DTD SVG 20010904//EN"
 "http://www.w3.org/TR/2001/REC-SVG-20010904/DTD/svg10.dtd">
<svg version="1.0" xmlns="http://www.w3.org/2000/svg"
 width="1095.000000pt" height="976.000000pt" viewBox="0 0 1095.000000 976.000000"
 preserveAspectRatio="xMidYMid meet">

<g transform="translate(0.000000,976.000000) scale(0.100000,-0.100000)"
fill="#000000" stroke="none">
<path d="M4830 9229 c-504 -35 -1001 -166 -1475 -389 l-110 -51 -27 30 c-17
19 -28 43 -28 59 0 17 -9 37 -22 49 -46 43 -237 90 -316 77 -29 -4 -47 -1 -75
16 -26 15 -45 20 -66 15 -23 -5 -34 -1 -55 20 -42 42 -111 68 -182 68 -86 0
-158 -35 -238 -115 -77 -78 -126 -173 -157 -303 -31 -135 -23 -315 21 -500 16
-71 35 -157 40 -189 l10 -60 -58 -60 c-144 -151 -318 -382 -449 -594 -513
-832 -682 -1845 -473 -2834 124 -585 388 -1151 775 -1665 l54 -71 -62 -7 c-74
-8 -166 -38 -224 -71 -51 -30 -154 -139 -172 -181 l-12 -30 -72 5 c-57 3 -84
0 -127 -17 -81 -31 -155 -107 -180 -183 -9 -29 -17 -38 -34 -38 -45 0 -183
-41 -251 -74 -79 -39 -156 -109 -187 -170 -29 -57 -35 -150 -13 -215 22 -68
98 -151 167 -182 104 -46 259 -24 428 61 33 17 61 30 63 30 3 0 7 -24 11 -52
9 -73 49 -150 101 -196 35 -31 47 -49 55 -88 15 -68 48 -122 98 -161 139 -106
344 -55 544 135 l36 35 49 -41 c110 -93 240 -127 373 -99 41 9 84 19 95 22 14
4 39 -10 88 -49 144 -117 306 -169 532 -170 162 0 249 13 394 60 99 33 241
102 291 142 23 18 23 18 89 -47 162 -161 369 -195 530 -87 l50 34 26 -38 c35
-51 135 -145 215 -204 201 -148 484 -224 730 -196 292 33 523 155 690 365 l50
63 61 -19 c171 -53 363 2 492 142 l62 67 57 -53 c31 -29 83 -66 115 -81 51
-26 69 -29 153 -29 74 0 104 4 135 20 61 30 121 97 141 158 9 28 18 53 19 55
1 1 37 -5 81 -14 244 -51 460 48 535 245 l17 46 78 6 c90 6 130 23 191 81 l42
41 38 -30 c66 -51 160 -103 245 -136 71 -26 97 -31 178 -31 82 -1 103 3 152
26 71 33 131 95 154 158 10 28 21 50 24 50 4 0 53 -18 111 -39 299 -113 502
-136 629 -71 53 27 115 101 130 155 19 68 8 164 -25 222 -82 143 -284 244
-546 275 l-96 11 -17 51 c-32 102 -115 181 -225 213 -65 18 -173 14 -241 -11
-44 -16 -45 -15 -60 6 -63 94 -152 144 -272 156 l-77 7 75 115 c725 1113 842
2521 312 3763 -473 1111 -1445 2007 -2583 2383 -528 174 -1071 242 -1625 203z
m780 -93 c1095 -133 2066 -679 2777 -1561 724 -899 1035 -2065 848 -3180 -95
-563 -314 -1095 -657 -1590 l-91 -132 -90 -7 c-50 -3 -138 -6 -196 -6 l-106 0
-309 150 c-170 83 -314 150 -320 150 -24 -1 110 -77 321 -183 123 -62 223
-115 223 -119 0 -3 -90 -7 -200 -8 -110 0 -207 -3 -215 -6 -8 -3 -35 6 -61 21
-48 28 -74 26 -34 -3 87 -65 269 -169 496 -284 145 -73 264 -136 264 -140 0
-5 -150 -8 -334 -8 l-334 0 -52 60 -52 60 32 30 c30 28 32 34 28 78 -4 32 -18
67 -47 113 -27 43 -45 87 -52 125 -14 74 -28 104 -80 176 -34 46 -43 67 -47
111 -4 50 0 62 44 143 26 49 73 130 103 179 30 50 115 207 188 350 123 241
150 288 122 206 -25 -71 3 -36 64 81 166 320 193 363 261 413 74 54 86 75 86
156 0 143 -81 196 -426 279 -172 42 -214 55 -214 68 0 10 9 54 20 100 25 104
25 113 -2 82 l-21 -25 7 45 c15 103 18 279 7 360 -14 92 -65 245 -100 300 -26
40 -24 27 18 -90 32 -92 51 -189 50 -260 0 -41 -2 -36 -23 45 -37 150 -101
270 -200 373 -48 51 -126 112 -142 112 -4 0 24 -33 63 -72 81 -84 163 -205
192 -284 33 -87 25 -85 -27 6 -185 332 -578 449 -968 288 -129 -54 -256 -155
-326 -262 -62 -97 -50 -109 33 -32 83 76 109 87 50 20 -51 -58 -78 -114 -89
-186 -9 -60 -5 -118 8 -118 5 0 29 31 54 68 82 124 182 204 328 264 72 29 104
32 51 5 -38 -20 -123 -111 -155 -167 -30 -50 -64 -148 -55 -156 3 -3 15 12 26
34 39 76 178 174 295 207 124 36 274 -3 365 -94 49 -49 53 -68 9 -41 -35 21
-148 29 -148 10 0 -5 11 -10 25 -10 38 0 79 -24 119 -72 67 -78 74 -179 15
-232 -29 -25 -33 -27 -39 -12 -5 16 -7 15 -24 -3 -11 -12 -42 -28 -69 -36 -67
-20 -80 -18 -37 4 33 18 91 71 77 71 -3 0 -21 -9 -39 -19 -56 -34 -109 -40
-180 -24 -48 12 -96 14 -198 9 -211 -10 -357 18 -585 111 -282 114 -469 261
-586 459 -261 443 -291 913 -84 1325 47 92 143 233 210 307 62 68 68 90 14 45
-177 -145 -348 -312 -426 -418 l-23 -30 6 35 c20 125 85 273 159 364 31 38 40
56 30 56 -17 0 -119 -97 -174 -165 -27 -34 -30 -35 -17 -10 23 47 94 126 179
201 96 84 83 95 -38 35 -156 -77 -375 -256 -460 -374 -22 -31 -42 -56 -45 -57
-4 0 -12 28 -19 62 -23 114 -107 265 -193 349 -111 107 -264 171 -412 171 -91
0 -194 -18 -262 -47 -53 -22 -37 -28 40 -14 97 17 258 7 326 -19 51 -20 152
-93 105 -76 -11 4 -49 18 -85 31 -169 63 -406 30 -632 -90 l-77 -40 -43 40
c-80 73 -207 118 -282 99 -73 -18 -139 -130 -161 -270 -8 -54 -26 -110 -53
-166 -21 -47 -44 -106 -51 -132 -13 -54 -15 -338 -3 -338 5 0 15 21 24 48 13
38 17 44 23 28 5 -11 3 -37 -4 -60 -40 -129 -50 -178 -50 -238 -1 -39 3 -68 9
-68 6 0 10 12 10 28 0 36 19 102 29 102 11 0 100 -304 101 -343 0 -5 -55 -5
-122 0 -68 4 -147 7 -176 5 -60 -3 -205 -35 -256 -56 -37 -16 -47 -12 -66 24
-44 83 -67 359 -50 618 l10 156 44 38 c50 43 69 87 69 162 0 80 -28 129 -104
188 -15 12 -17 61 -22 456 l-5 444 66 63 c96 90 266 229 269 219 1 -5 25 -169
53 -364 28 -195 55 -368 60 -385 l8 -30 1 31 c1 48 -58 516 -103 812 -3 18 3
26 22 33 13 5 26 8 28 7 1 -2 50 -242 109 -533 94 -472 115 -567 115 -527 0
23 -179 981 -197 1050 -3 12 -1 22 5 22 6 0 17 3 25 6 10 3 16 -3 19 -23 10
-63 162 -702 166 -699 3 4 -59 310 -119 583 -32 145 -33 153 -21 153 5 0 28
-69 51 -152 68 -243 112 -382 122 -393 5 -5 3 13 -5 40 -74 261 -137 508 -132
521 3 8 12 14 19 12 6 -3 101 -228 211 -502 109 -273 200 -495 202 -494 4 5
-175 484 -299 801 -67 173 -82 220 -71 224 19 7 13 15 73 -102 59 -113 59 -83
1 42 -33 72 -36 84 -23 95 18 14 10 25 109 -157 185 -341 267 -491 276 -500
19 -20 -175 367 -292 583 -51 94 -59 113 -45 118 9 4 17 5 19 3 2 -2 72 -122
157 -266 84 -144 155 -260 157 -258 4 4 -145 284 -237 445 -53 93 -67 131 -41
115 10 -6 170 -254 348 -540 120 -192 162 -254 129 -190 -9 17 -117 197 -240
400 -195 320 -223 372 -211 385 9 9 17 11 23 5 5 -6 161 -237 346 -515 299
-446 380 -565 350 -510 -40 72 -346 547 -543 842 -101 152 -143 222 -138 234
4 10 10 13 15 8 4 -5 124 -152 267 -328 308 -378 304 -373 304 -362 0 19 -306
407 -487 619 -104 121 -111 165 -9 56 99 -105 937 -972 1009 -1044 63 -62 -42
57 -238 270 -168 183 -537 574 -590 625 -26 25 -65 66 -86 92 l-40 47 78 39
c360 180 899 332 1318 372 61 5 126 12 145 14 90 10 633 -3 760 -18z m-3067
-80 c37 -14 77 -42 77 -56 0 -4 -11 -12 -24 -19 -19 -11 -28 -10 -54 3 -97 50
-225 -20 -288 -158 -45 -100 -58 -171 -58 -321 0 -119 5 -163 33 -295 55 -266
62 -333 66 -640 3 -272 3 -277 -6 -105 -14 292 -53 647 -66 608 -2 -7 3 -94
11 -193 18 -201 30 -693 17 -645 -5 17 -9 93 -10 170 -2 298 -34 591 -87 807
-65 263 -58 467 22 627 89 179 234 264 367 217z m205 -102 c3 -23 -50 -74 -56
-55 -6 18 -25 12 -66 -19 -26 -19 -43 -27 -49 -21 -15 15 18 59 71 92 54 34
95 36 100 3z m-248 -19 c0 -3 -17 -20 -37 -39 -48 -43 -98 -126 -130 -214 -26
-71 -62 -227 -64 -277 -2 -69 -17 21 -18 112 -3 238 89 422 212 423 20 0 37
-2 37 -5z m428 -91 c29 -14 52 -29 52 -34 0 -4 -26 -32 -57 -61 -57 -52 -121
-88 -156 -89 -15 0 -16 3 -7 20 12 22 5 60 -11 60 -10 0 -7 49 5 68 5 8 0 12
-13 12 -29 0 -26 17 7 34 44 24 120 20 180 -10z m-405 -68 c3 -8 -1 -36 -10
-63 -10 -29 -16 -89 -17 -154 -1 -132 7 -147 92 -151 l55 -3 -119 -96 c-65
-53 -128 -106 -138 -118 -31 -34 -37 -25 -31 42 19 191 62 370 117 490 31 68
41 78 51 53z m187 10 c0 -3 -4 -8 -10 -11 -5 -3 -10 -1 -10 4 0 6 5 11 10 11
6 0 10 -2 10 -4z m315 -28 c-39 -46 -90 -88 -164 -137 -91 -59 -94 -51 -8 19
41 33 88 75 103 92 26 30 66 56 87 57 5 1 -3 -14 -18 -31z m-365 -142 c0 -2
-11 -11 -25 -20 -14 -9 -25 -12 -25 -6 0 6 10 15 23 20 27 11 27 11 27 6z
m-479 -1021 c6 -132 9 -285 7 -340 -5 -95 -7 -102 -42 -155 -48 -70 -101 -89
-146 -52 -23 18 -23 19 -7 67 24 68 22 109 -7 141 -35 41 -89 39 -127 -4 -34
-38 -36 -70 -9 -131 11 -24 20 -47 20 -51 0 -5 -14 -23 -31 -40 -28 -28 -31
-36 -26 -76 3 -27 13 -55 26 -68 25 -27 26 -39 5 -72 -40 -60 9 -154 80 -154
75 0 117 76 90 157 -18 51 -11 63 38 63 43 0 57 -9 92 -64 l34 -51 5 -350 c10
-710 90 -962 380 -1201 50 -42 102 -85 115 -95 12 -10 22 -30 22 -44 0 -35 66
-362 97 -480 45 -172 140 -409 278 -695 91 -186 142 -306 160 -370 15 -52 35
-109 46 -127 11 -17 59 -68 108 -112 49 -45 94 -95 101 -111 8 -19 11 -55 7
-96 -4 -54 -13 -78 -52 -146 -41 -71 -47 -87 -42 -124 4 -36 1 -47 -20 -66
-13 -12 -35 -40 -49 -63 -25 -39 -27 -40 -75 -37 -27 2 -49 7 -49 10 0 4 26
30 57 59 32 28 55 54 51 58 -4 4 -45 -19 -90 -52 l-83 -60 -225 -7 -225 -7
170 104 c301 183 401 253 335 232 -23 -7 -224 -122 -465 -264 l-120 -71 -127
0 c-71 0 -128 -4 -128 -9 0 -5 40 -13 90 -17 l90 -9 -494 -247 c-271 -137
-498 -248 -504 -248 -6 0 -12 -4 -14 -8 -1 -4 -59 -38 -128 -76 -131 -72 -250
-151 -250 -166 0 -5 26 7 57 26 32 19 138 76 236 125 154 78 183 89 210 83 37
-8 761 -7 791 2 12 3 -19 -32 -69 -77 -49 -46 -146 -138 -215 -205 l-125 -122
-185 -13 c-102 -7 -194 -16 -205 -21 -21 -9 261 -2 329 9 l40 5 -45 -51 c-132
-154 -198 -245 -186 -257 2 -3 36 33 75 78 39 46 104 116 144 155 l73 73 200
11 c188 11 930 7 942 -5 3 -3 -4 -17 -14 -33 -47 -66 -42 -76 10 -22 l54 56
279 -13 c153 -8 436 -17 627 -20 347 -7 349 -7 344 -28 -2 -12 -21 -77 -41
-146 -20 -69 -39 -145 -42 -170 -4 -41 -2 -38 25 35 16 44 46 128 66 186 l37
106 641 6 c352 4 642 5 645 3 2 -3 15 -51 28 -108 31 -129 53 -198 65 -198 13
0 12 8 -20 163 -16 75 -26 139 -22 140 3 2 265 2 582 -1 l576 -4 71 -87 c80
-97 162 -180 162 -165 0 13 -65 105 -132 189 l-48 60 132 7 c73 4 227 10 341
14 327 10 245 25 -164 30 -194 3 -354 6 -355 7 -95 128 -159 219 -232 329
l-92 137 33 5 c17 3 210 10 427 14 l395 9 105 -95 c58 -53 138 -127 178 -166
39 -39 72 -64 72 -57 0 8 -68 81 -150 162 -83 82 -150 151 -150 154 0 3 162 5
361 5 l361 0 312 -164 c171 -91 320 -168 331 -171 34 -11 -19 28 -140 104
-100 62 -149 90 -355 205 l-65 36 140 1 c77 0 160 4 185 8 l45 8 -35 6 c-19 3
-123 8 -230 11 l-194 5 -376 188 -375 188 241 3 241 2 139 -66 c460 -218 1030
-440 1484 -578 313 -94 288 -66 -45 52 -110 39 -288 102 -395 140 -271 96
-706 273 -984 400 l-109 50 54 6 c64 6 208 20 229 21 8 0 50 9 94 19 106 25
202 19 274 -18 56 -28 106 -87 117 -137 4 -16 10 -29 13 -29 4 0 45 14 92 30
92 32 172 38 231 18 93 -31 161 -116 174 -214 l7 -51 107 -6 c239 -12 454
-105 529 -228 30 -49 33 -60 30 -120 -4 -79 -34 -126 -100 -160 -125 -64 -380
-11 -765 158 -10 4 -13 -9 -13 -46 0 -121 -85 -213 -210 -228 -132 -16 -330
70 -486 210 l-51 46 -11 -37 c-14 -46 -64 -107 -105 -129 -30 -15 -86 -19
-181 -10 -28 2 -31 -2 -51 -58 -30 -85 -47 -114 -97 -162 -64 -62 -125 -85
-238 -90 -94 -5 -121 0 -282 54 -16 5 -18 -2 -18 -50 0 -78 -40 -152 -103
-191 -110 -68 -255 -26 -368 107 -34 40 -67 78 -74 85 -10 11 -18 3 -44 -42
-60 -108 -152 -186 -260 -221 -75 -24 -194 -17 -279 17 l-62 26 -32 -47 c-128
-189 -312 -319 -536 -378 -127 -34 -334 -38 -457 -9 -156 36 -306 110 -427
211 -64 54 -167 172 -204 235 -10 16 -21 30 -24 30 -3 0 -20 -20 -37 -44 -68
-96 -204 -132 -325 -86 -77 29 -165 96 -213 164 -22 30 -43 55 -47 56 -4 0
-36 -20 -72 -45 -133 -93 -334 -171 -500 -194 -277 -39 -518 25 -694 185 l-56
50 -60 -25 c-88 -37 -217 -37 -297 0 -56 26 -118 79 -156 133 l-21 30 -90 -85
c-141 -131 -229 -178 -337 -178 -110 -1 -177 62 -191 179 -6 51 -10 57 -52 85
-53 35 -93 104 -100 173 -4 43 8 89 43 175 5 13 -36 -4 -141 -57 -225 -112
-329 -141 -419 -116 -92 26 -165 121 -165 214 0 92 67 172 195 233 67 32 191
62 258 63 20 0 27 5 27 19 0 37 31 107 63 140 66 69 169 90 255 51 40 -18 43
-18 49 -2 51 152 151 248 298 287 93 24 139 19 314 -31 19 -6 8 13 -56 92
-249 308 -403 544 -557 852 -209 417 -344 881 -398 1367 -17 152 -17 623 0
770 82 722 326 1337 752 1894 124 162 221 274 231 264 4 -4 13 -116 20 -248z
m1061 -211 c44 -15 87 -48 76 -59 -3 -3 -27 -1 -54 5 -27 6 -64 8 -82 5 -49
-9 -98 -58 -118 -118 -22 -64 -32 -38 -15 38 15 67 41 108 82 128 42 21 54 21
111 1z m518 -93 c-65 -21 -124 -50 -116 -58 3 -3 20 0 38 6 58 21 166 30 236
20 113 -16 274 -109 312 -180 9 -15 6 -15 -33 -1 -55 21 -268 23 -314 3 -44
-18 -42 -29 5 -22 56 10 143 -5 234 -40 85 -33 85 -33 23 -54 -23 -8 -17 -11
47 -20 l48 -6 -40 -38 c-36 -34 -40 -43 -40 -85 0 -53 16 -90 54 -125 34 -32
115 -41 151 -17 32 21 32 36 1 36 -46 0 -61 53 -19 66 10 3 26 10 35 15 13 7
21 3 32 -14 17 -25 37 -107 30 -119 -3 -4 -1 -8 4 -8 25 0 30 172 7 269 -20
83 -82 202 -142 271 l-48 55 43 -34 c172 -135 244 -413 175 -678 -23 -86 -11
-84 28 3 29 64 49 82 49 44 0 -11 5 -20 10 -20 6 0 10 4 10 9 0 12 83 92 89
86 2 -3 -6 -23 -18 -46 -13 -22 -21 -42 -19 -45 3 -2 26 17 52 43 38 38 47 43
41 25 -16 -53 -48 -115 -77 -147 -51 -59 -8 -39 54 25 84 86 72 35 -17 -75
-25 -30 -42 -55 -39 -55 4 0 28 17 53 37 46 38 46 38 27 8 -10 -17 -28 -41
-40 -53 -31 -35 -116 -95 -123 -88 -4 3 -17 -4 -30 -16 -19 -17 -23 -19 -17
-5 12 31 -3 18 -42 -38 -21 -31 -48 -86 -60 -123 -19 -55 -23 -61 -23 -35 -1
29 31 133 49 158 3 6 19 32 34 58 24 43 25 47 8 38 -11 -6 -41 -34 -67 -63
-44 -50 -47 -45 -8 12 11 17 4 13 -23 -12 -22 -21 -44 -38 -48 -38 -5 0 3 9
18 21 14 11 26 25 26 31 0 6 -15 -1 -34 -16 -19 -14 -36 -26 -38 -26 -2 0 -2
19 0 43 3 23 2 40 -1 37 -3 -3 -33 -48 -67 -100 -67 -102 -175 -236 -197 -245
-8 -2 5 21 28 53 73 101 171 253 166 258 -2 3 -21 -14 -41 -37 -20 -24 -36
-39 -36 -36 0 4 15 38 34 76 44 86 66 172 65 247 l-1 59 -13 -72 c-24 -136
-86 -232 -251 -393 -42 -41 -101 -112 -130 -157 -29 -45 -95 -130 -145 -188
-50 -59 -89 -108 -87 -111 3 -2 26 10 52 27 l49 30 -6 -28 c-3 -15 -13 -77
-22 -138 -43 -298 -38 -289 -146 -290 -41 0 -83 -5 -93 -10 -19 -8 -19 -7 1
26 22 36 27 55 23 104 -2 26 -3 24 -12 -15 -21 -94 -83 -117 -145 -55 -20 20
-38 34 -40 31 -8 -8 26 -64 49 -80 18 -13 19 -18 8 -30 -32 -39 -115 -39 -174
-1 -38 25 -32 43 19 56 63 16 65 27 6 35 l-50 6 -3 56 c-3 62 -24 84 -24 26 0
-39 -22 -64 -57 -64 -27 0 -77 54 -77 84 0 14 -4 26 -10 26 -13 0 -13 -41 0
-74 11 -30 8 -32 -14 -10 -19 18 -21 82 -4 119 7 16 34 36 76 55 44 21 87 54
138 105 41 41 74 72 74 69 0 -3 -15 -37 -34 -75 -33 -66 -33 -70 -13 -63 53
16 178 86 229 128 l56 45 -9 -39 c-13 -55 -38 -129 -60 -173 l-20 -37 63 47
c34 26 88 75 120 108 76 79 259 324 298 400 l32 60 -59 -65 c-32 -36 -89 -100
-128 -144 -75 -84 -186 -184 -167 -151 6 11 39 52 72 90 101 115 179 225 222
312 38 79 46 131 20 126 -16 -4 -16 -6 18 86 32 88 29 105 -8 40 -25 -43 -92
-122 -99 -116 -2 3 5 28 17 56 11 28 20 53 20 55 0 7 -45 -7 -59 -18 -12 -9
-13 -8 -8 7 9 23 86 137 93 137 3 0 -8 -26 -25 -57 -17 -31 -29 -59 -26 -61
10 -10 77 73 107 132 49 97 69 163 62 208 -6 37 -7 38 -25 22 -18 -16 -19 -16
-19 11 0 44 -23 16 -86 -104 -31 -58 -86 -159 -121 -224 -36 -65 -63 -120 -61
-122 2 -3 22 20 44 50 21 30 42 55 46 55 10 0 -42 -89 -103 -175 -57 -81 -126
-211 -169 -318 -28 -72 -37 -69 -11 4 28 79 58 143 112 240 27 48 49 90 49 95
0 4 -14 -5 -31 -22 -31 -29 -31 -29 -24 -4 16 53 36 94 82 162 31 47 44 73 35
76 -6 2 -12 8 -12 13 0 6 40 63 88 127 83 109 112 153 112 166 0 13 -28 4 -45
-14 -32 -35 -38 -21 -11 26 14 26 26 49 26 52 0 3 -18 -12 -40 -33 -30 -29
-40 -35 -40 -21 0 9 5 26 10 37 20 37 -8 19 -63 -41 -100 -108 -217 -298 -258
-420 l-19 -55 38 45 c75 91 91 106 92 88 0 -9 -25 -49 -56 -90 -31 -40 -71
-104 -91 -142 -19 -37 -36 -66 -38 -64 -2 2 2 26 10 53 13 46 13 48 -1 30 -30
-38 -82 -150 -129 -280 -26 -71 -50 -132 -53 -135 -10 -11 13 71 54 197 88
262 208 493 378 726 47 65 86 120 86 123 0 2 -17 -7 -37 -20 -20 -14 -39 -24
-41 -21 -2 2 6 20 18 39 24 40 20 44 -18 18 -52 -36 -55 -35 -23 12 l33 48
-31 -16 c-78 -41 -205 -206 -308 -401 -29 -55 -53 -97 -53 -94 0 3 9 32 20 64
38 111 141 271 256 395 36 39 63 74 61 77 -7 6 -64 -23 -105 -54 -54 -41 -47
-19 10 31 60 52 58 56 -12 21 -28 -14 -50 -21 -50 -15 0 5 16 28 36 50 20 22
32 40 27 40 -5 0 -35 -16 -67 -35 -32 -19 -60 -35 -63 -35 -11 0 31 48 65 73
l37 29 -50 -7 -50 -6 29 17 30 17 -59 18 c-63 19 -106 16 -182 -16 -45 -19
-44 -20 -28 12 12 22 21 27 44 25 50 -6 109 17 153 58 23 22 45 40 49 40 5 0
48 -33 97 -74 169 -141 250 -188 361 -212 67 -14 149 -19 139 -8 -4 3 -46 14
-95 25 -123 26 -236 85 -329 172 -41 38 -74 73 -74 78 0 27 145 67 245 67 l60
1 -55 -18z m-1802 -53 c14 -14 16 -74 3 -83 -5 -3 -11 3 -14 12 -2 11 -7 2
-12 -22 -6 -31 -3 -54 15 -103 15 -42 19 -67 13 -73 -7 -7 -13 1 -18 23 l-9
33 -3 -37 c-5 -42 -17 -49 -33 -18 -7 14 -7 32 0 63 9 34 8 52 -4 87 -21 60
-20 86 4 110 23 23 41 25 58 8z m440 -208 c18 -35 22 -55 18 -92 -6 -55 -20
-80 -57 -102 -41 -24 -48 -19 -11 10 37 30 42 49 9 40 -26 -6 -51 23 -41 49 4
10 0 15 -14 15 -12 0 -24 5 -27 10 -3 6 3 10 14 10 11 0 22 4 26 10 8 14 -56
28 -82 19 -13 -5 -23 -5 -23 1 0 14 38 22 73 15 29 -5 30 -4 15 8 -26 20 -22
30 8 24 22 -4 25 -1 21 15 -5 16 -1 19 21 16 20 -2 33 -14 50 -48z m2406 -76
c-21 -37 -59 -90 -86 -118 l-48 -51 30 -8 c16 -4 30 -12 30 -18 0 -10 -87 -69
-102 -69 -16 0 5 56 49 128 47 77 153 215 160 208 2 -2 -13 -34 -33 -72z
m-2676 11 c-2 -24 -6 -25 -60 -25 -51 0 -58 2 -58 19 0 17 8 21 53 24 28 2 55
4 59 5 4 1 7 -9 6 -23z m-261 -7 c-3 -8 -6 -5 -6 6 -1 11 2 17 5 13 3 -3 4
-12 1 -19z m1295 -95 c-16 -21 -42 -49 -57 -63 -40 -37 -19 2 35 63 49 56 67
56 22 0z m87 -10 c-24 -27 -61 -72 -83 -100 -21 -29 -40 -53 -42 -53 -3 0 7
22 22 50 30 56 130 167 140 157 4 -4 -13 -28 -37 -54z m1056 30 c-4 -10 -10
-26 -12 -36 -7 -22 -46 -19 -51 4 -4 22 24 49 50 49 15 0 18 -4 13 -17z
m-2391 -124 c-15 -17 -15 -19 0 -25 26 -10 44 3 49 33 l4 28 2 -31 c1 -35 -29
-70 -53 -61 -8 3 -23 18 -32 32 -16 25 -16 28 0 63 l18 37 15 -28 c13 -26 13
-31 -3 -48z m1379 -26 c-63 -94 -84 -131 -119 -212 -19 -42 -34 -68 -34 -59 0
25 46 145 74 193 31 52 107 147 113 141 3 -2 -13 -31 -34 -63z m-133 -79 c-41
-79 -59 -108 -56 -85 4 18 6 39 6 46 0 16 100 168 107 162 2 -3 -23 -58 -57
-123z m370 107 c0 -13 -112 -182 -117 -177 -6 6 11 38 64 119 43 65 53 76 53
58z m-425 -87 c-3 -21 -13 -46 -20 -58 -8 -12 -23 -57 -34 -101 -11 -44 -24
-98 -30 -120 -10 -39 -10 -38 -5 15 7 80 29 177 54 243 24 65 46 78 35 21z
m169 -98 c-15 -31 -29 -54 -32 -51 -6 5 16 61 36 93 27 41 24 15 -4 -42z
m1757 -610 c17 -81 28 -150 25 -153 -7 -7 -44 119 -56 190 -5 34 -9 87 -8 117
0 31 3 42 5 25 2 -16 18 -97 34 -179z m-223 -106 l0 -35 -8 30 c-4 17 -8 57
-7 90 l0 60 7 -55 c5 -30 8 -71 8 -90z m-1767 38 c26 -109 8 -328 -28 -328 -7
0 -28 -14 -47 -31 -27 -23 -37 -43 -46 -85 l-12 -56 -24 23 c-13 12 -24 27
-24 32 0 5 -8 15 -17 22 -16 12 -16 14 0 38 15 23 14 37 -3 37 -4 0 -13 -12
-20 -27 l-12 -28 -10 24 c-7 19 -3 36 15 73 13 26 20 48 16 48 -8 0 -34 -32
-55 -66 -7 -11 -14 -16 -18 -13 -10 10 14 76 44 118 17 22 26 41 22 41 -16 0
-61 -55 -77 -95 -15 -34 -18 -37 -27 -21 -13 24 15 97 55 143 38 43 74 62 162
85 l70 18 -64 -5 c-109 -8 -206 -78 -233 -167 -6 -21 -15 -38 -19 -38 -10 0
-29 57 -29 87 0 81 106 138 294 158 73 8 73 25 0 25 -115 0 -257 -56 -299
-118 -52 -77 -25 -181 76 -298 81 -92 276 -252 421 -344 463 -294 1385 -623
2088 -745 297 -51 983 -105 1342 -105 397 0 824 58 1113 151 189 61 238 123
159 202 -21 21 -29 24 -43 15 -13 -8 -36 -6 -87 5 -38 9 -102 19 -142 23 -79
7 -76 4 -51 70 l8 22 90 -19 c277 -57 406 -105 473 -176 46 -49 45 -72 -5
-134 -35 -41 -64 -64 -129 -96 -244 -123 -568 -214 -923 -260 -110 -14 -213
-18 -485 -18 -499 0 -745 25 -1269 131 -769 154 -1582 395 -1936 572 -320 160
-516 295 -565 392 -10 19 -57 68 -104 108 -198 171 -274 280 -284 410 -4 66
-3 70 28 106 48 55 171 112 291 135 24 5 103 9 176 10 l131 1 13 -52z m1238
-90 c-1 -109 -3 -136 -11 -113 -18 57 -13 255 7 255 3 0 5 -64 4 -142z m-1973
-29 c4 -7 3 -9 -4 -5 -11 7 -33 94 -31 129 0 12 7 -8 14 -45 8 -37 17 -73 21
-79z m1833 -11 c-4 -24 -8 -78 -9 -120 0 -63 3 -78 15 -78 12 0 15 14 15 63 0
34 5 69 10 77 7 11 10 5 10 -25 0 -97 49 -315 86 -387 14 -26 13 -28 -6 -28
-28 0 -61 87 -95 255 -6 28 -8 29 -20 12 -8 -11 -24 -58 -36 -105 l-23 -87
-10 40 c-11 46 5 228 28 315 27 102 51 148 35 68z m649 -250 c12 -42 40 -118
62 -169 41 -97 46 -123 12 -67 -60 99 -119 303 -127 437 l-4 86 18 -105 c10
-58 28 -140 39 -182z m-837 110 c-20 -115 -19 -223 3 -253 13 -18 15 -14 21
40 11 106 18 116 26 40 3 -38 16 -101 28 -139 24 -79 24 -76 11 -76 -5 0 -17
16 -26 35 -17 37 -58 75 -79 75 -36 0 -33 163 6 308 17 62 23 43 10 -30z
m1421 -307 c8 -10 4 -8 -10 3 -25 22 -137 244 -147 291 -3 17 28 -39 69 -124
42 -85 82 -161 88 -170z m-114 50 c20 -35 21 -41 7 -41 -13 0 -55 74 -55 97 0
13 28 -19 48 -56z m-887 -90 c16 -35 29 -66 29 -69 0 -3 -13 7 -29 22 -20 19
-34 46 -40 78 -14 64 -13 92 1 58 6 -14 24 -54 39 -89z m269 -106 c11 -7 -5
-35 -20 -35 -11 0 -57 111 -64 155 -5 37 -3 33 34 -37 22 -42 44 -79 50 -83z
m-892 118 c-58 -62 -46 -110 14 -59 43 37 85 52 118 41 46 -15 4 -106 -56
-121 -18 -5 -22 -9 -13 -15 28 -17 -42 -22 -77 -5 -45 21 -44 21 -38 -16 6
-35 -27 -97 -55 -106 -10 -3 -7 5 7 23 22 27 28 56 16 68 -4 4 -14 -8 -23 -25
-26 -51 -44 -57 -95 -29 -30 15 -51 35 -62 59 -15 32 -18 34 -24 17 -7 -19 -7
-19 -15 4 -8 26 -21 18 -27 -19 -4 -22 -5 -23 -13 -6 -12 27 20 80 61 100 45
21 118 21 154 -1 34 -20 55 -8 65 36 8 36 48 74 84 80 3 1 -7 -11 -21 -26z
m1447 -78 c27 -47 85 -119 149 -188 42 -44 43 -50 16 -84 -32 -41 -25 -59 11
-29 24 20 41 26 81 26 44 0 54 -4 84 -34 37 -37 45 -78 19 -112 -45 -59 13
-53 91 9 130 104 299 102 411 -6 59 -56 78 -155 47 -257 l-7 -25 26 24 c25 23
46 25 87 7 12 -5 19 4 28 39 25 95 122 165 229 165 132 0 207 -57 229 -174 5
-32 8 -36 16 -21 12 20 2 82 -18 113 -14 22 -14 22 36 22 l51 0 -20 -29 c-30
-42 -26 -44 25 -11 86 54 189 59 278 13 18 -9 50 -15 75 -14 71 3 119 -41 157
-144 6 -15 9 -10 13 25 5 36 12 48 40 67 72 48 171 21 211 -58 12 -22 24 -39
27 -36 12 12 -10 66 -37 92 -38 36 -38 45 1 45 63 0 119 -43 134 -102 6 -22 1
-27 -47 -47 -62 -26 -358 -87 -469 -96 l-76 -7 -32 41 c-36 46 -52 89 -44 123
5 19 3 21 -8 10 -21 -19 -16 -97 7 -124 l19 -22 -25 15 c-14 9 -56 19 -95 23
-85 9 -105 24 -105 80 -1 33 -3 38 -11 23 -6 -10 -8 -32 -4 -50 6 -31 5 -31
-10 -12 -16 19 -16 18 -10 -17 6 -33 5 -38 -12 -38 -11 0 -34 -16 -52 -36
l-33 -36 -171 7 c-138 6 -178 11 -202 25 -37 22 -159 50 -219 50 -25 0 -75 -7
-113 -16 -42 -10 -85 -13 -113 -9 -74 10 -80 14 -80 46 0 36 -12 37 -34 4 -14
-21 -24 -25 -67 -25 -61 0 -84 11 -110 53 l-21 32 5 -38 c6 -38 6 -38 -26 -32
-18 2 -61 9 -97 15 -127 21 -124 19 -104 41 21 24 13 34 -15 20 -24 -13 -74
-4 -68 13 12 32 18 56 13 56 -18 0 -39 -17 -57 -46 -23 -37 -39 -44 -39 -16 0
30 36 78 73 95 95 46 221 -9 242 -105 l7 -31 17 49 c14 42 23 52 61 72 58 29
109 28 182 -5 47 -21 63 -34 79 -65 17 -33 24 -38 55 -38 86 0 145 61 142 146
-1 39 -2 42 -5 14 -10 -96 -40 -130 -113 -130 -44 0 -49 3 -60 30 -7 17 -32
47 -56 67 -36 29 -44 41 -44 70 0 23 8 42 26 60 24 24 30 25 87 19 49 -5 59
-4 49 6 -7 7 -37 13 -68 13 -50 0 -59 -3 -85 -33 -17 -18 -31 -49 -35 -72 l-7
-40 -54 0 c-63 0 -114 -21 -143 -58 -20 -25 -21 -25 -35 -6 -8 10 -15 23 -15
27 0 11 -100 57 -124 57 -10 0 -33 13 -52 29 -42 38 -112 50 -158 29 -27 -14
-35 -14 -62 0 l-31 14 39 36 c22 20 46 48 54 63 19 37 18 103 -2 145 -19 39
-38 46 -24 9 12 -32 4 -74 -21 -105 l-19 -25 10 31 c7 18 7 40 2 54 -8 22 -10
21 -30 -21 -30 -62 -78 -91 -160 -99 l-67 -6 35 -22 35 -22 -30 0 c-16 0 -50
9 -74 20 -48 22 -65 25 -56 10 3 -5 3 -10 -2 -10 -17 0 -55 71 -62 117 l-8 48
-7 -37 c-9 -42 -1 -72 26 -108 l20 -25 -39 -16 c-25 -11 -48 -13 -68 -8 -16 4
-48 10 -69 14 -28 5 -50 18 -73 43 -34 37 -46 26 -17 -16 24 -35 3 -25 -48 23
-27 24 -48 52 -48 62 0 10 9 38 20 62 11 24 20 45 20 47 0 2 -16 -3 -36 -11
-50 -21 -55 -19 -43 12 13 34 -3 52 -22 25 -31 -42 -89 -54 -122 -24 -20 16
-20 16 -14 -7 4 -18 3 -21 -6 -12 -18 18 -29 13 -17 -9 15 -27 3 -25 -49 10
-54 37 -113 54 -163 47 -21 -3 -38 -2 -38 2 0 11 43 32 80 40 25 5 39 16 56
46 24 44 42 52 73 35 l21 -11 -20 -37 c-11 -20 -20 -50 -20 -66 0 -28 2 -26
25 21 66 132 280 140 368 13 16 -23 23 -25 75 -22 43 3 61 0 71 -12 11 -13 18
-9 51 33 50 62 96 84 190 89 87 4 157 -15 261 -73 76 -42 116 -85 130 -141 7
-28 20 -46 40 -58 17 -10 35 -29 41 -42 14 -31 28 -31 28 0 0 15 -14 36 -37
57 -49 42 -61 92 -26 108 30 14 29 21 -8 57 -26 25 -107 164 -95 164 2 0 16
-20 31 -45z m-482 -8 c-4 -6 -12 -3 -20 8 -20 28 -16 41 7 20 11 -10 17 -22
13 -28z m647 -1 c-1 -21 -1 -21 -15 -2 -19 25 -19 37 0 30 8 -4 15 -16 15 -28z
m376 -38 c53 -82 157 -188 242 -244 79 -53 80 -55 31 -37 -63 22 -157 27 -232
13 l-65 -12 -59 40 c-61 41 -122 103 -144 144 -6 12 12 -2 42 -33 63 -65 131
-112 154 -107 11 2 -20 33 -92 91 -92 75 -163 149 -163 171 0 4 9 2 19 -4 21
-11 37 2 26 19 -11 19 13 20 30 1 17 -19 17 -20 -5 -38 -20 -16 -21 -21 -9
-39 24 -39 81 -55 96 -28 8 13 14 11 43 -10 37 -28 174 -105 186 -105 4 0 -13
22 -38 48 -53 56 -91 112 -113 165 -25 61 1 43 51 -35z m-276 -185 c0 -1 -7
-3 -15 -3 -8 0 -15 4 -15 8 0 5 -18 38 -40 75 -59 97 -49 101 15 6 30 -45 55
-84 55 -86z m-1445 26 c49 -23 86 -66 104 -121 l12 -37 34 15 c74 30 170 6
206 -52 11 -18 19 -44 16 -56 -3 -22 -4 -22 -12 -3 -10 25 -36 55 -47 55 -4 0
-5 -12 -2 -27 l7 -26 -74 6 c-78 6 -220 45 -279 76 -19 10 -50 26 -67 35 -39
20 -72 65 -65 86 8 23 -22 -10 -31 -34 -6 -15 -10 -17 -20 -7 -32 32 68 111
140 111 18 0 53 -9 78 -21z m-1189 -209 c52 -164 203 -571 271 -729 25 -59 77
-169 118 -246 62 -120 72 -145 68 -178 -4 -27 -2 -37 7 -35 17 4 35 -61 21
-75 -8 -8 -11 -8 -11 1 0 6 -20 54 -45 106 -25 53 -45 98 -45 100 0 3 -38 91
-86 197 -175 392 -259 615 -324 865 -17 65 -34 128 -37 139 -4 14 -2 17 5 10
6 -6 32 -75 58 -155z m4588 86 c-3 -9 -10 -16 -15 -16 -5 0 -4 9 3 20 14 22
21 20 12 -4z m-1203 -115 c27 -24 48 -46 45 -48 -5 -5 -196 134 -196 143 0 11
107 -56 151 -95z m88 70 c7 -5 10 -14 7 -20 -11 -17 -41 -13 -67 9 l-24 19 35
1 c19 0 41 -4 49 -9z m190 -27 c46 -13 87 -27 90 -30 3 -4 -5 -3 -19 1 -14 5
-57 9 -97 9 -66 1 -73 3 -93 29 l-22 28 28 -7 c16 -3 67 -17 113 -30z m476 -6
c68 -34 125 -74 125 -89 0 -5 -17 -2 -37 7 -22 9 -73 17 -119 19 -87 4 -142
24 -179 65 -11 13 -15 21 -10 18 6 -2 31 -14 57 -26 25 -12 68 -25 95 -28 l48
-5 -45 41 c-37 35 -41 40 -20 35 14 -4 52 -21 85 -37z m342 -48 l31 0 -31 -31
c-29 -29 -32 -30 -42 -14 -5 10 -22 33 -37 50 -38 44 -35 50 9 20 21 -14 52
-25 70 -25z m-558 -29 c-13 -4 -129 49 -129 60 0 4 32 -7 71 -24 39 -17 65
-33 58 -36z m655 43 c8 -22 8 -44 -2 -44 -12 0 -33 40 -27 50 9 15 22 12 29
-6z m-2613 -5 c19 -7 46 -23 62 -37 25 -24 30 -25 60 -14 19 7 53 12 76 12 36
0 49 -6 77 -34 36 -36 46 -90 22 -114 -19 -19 -29 -14 -16 8 17 26 4 35 -24
16 -32 -22 -52 -20 -88 10 -36 31 -50 25 -26 -11 9 -14 14 -25 11 -25 -20 0
-95 24 -95 30 0 4 -21 10 -47 12 -27 3 -78 19 -114 36 -71 34 -89 38 -89 22 0
-5 -6 -10 -14 -10 -46 0 -12 64 49 91 46 21 107 24 156 8z m-1540 -74 c85 -28
87 -29 93 -64 3 -19 4 -36 2 -38 -4 -4 -179 106 -196 124 -13 14 -13 15 0 11
8 -3 54 -18 101 -33z m301 -104 l107 -42 6 -47 c41 -317 197 -800 342 -1059
30 -55 32 -63 16 -63 -28 -1 40 -55 112 -90 52 -25 257 -100 273 -100 15 0
-34 40 -68 55 -22 10 -39 20 -37 22 3 2 26 -6 53 -18 363 -156 838 -273 1276
-314 95 -9 197 -19 226 -21 47 -5 52 -8 47 -25 -8 -24 -1 -24 22 0 15 15 40
19 155 25 106 4 137 3 135 -6 -1 -7 8 -14 21 -16 20 -3 32 -22 14 -22 -55 0
-236 -24 -265 -36 -21 -8 -43 -11 -49 -8 -5 4 -110 12 -232 20 -279 16 -811
96 -1006 151 -61 17 -311 112 -322 122 -5 4 9 5 30 3 54 -6 32 11 -63 49 -103
41 -291 134 -331 165 -36 27 -91 118 -192 319 -109 219 -198 471 -278 788 -19
78 -40 147 -45 152 -12 12 -8 -14 26 -187 78 -389 268 -844 427 -1027 16 -18
28 -35 26 -37 -2 -2 -26 8 -54 21 -59 28 -123 44 -178 45 -27 0 -55 10 -88 31
-57 37 -57 49 0 20 41 -21 131 -45 139 -37 2 2 -23 19 -56 36 -70 37 -82 58
-18 30 51 -22 122 -37 114 -23 -3 5 -38 22 -76 37 -39 15 -74 33 -78 39 -4 7
0 8 11 4 38 -15 69 -20 63 -10 -8 13 -123 83 -137 83 -16 0 -73 31 -67 36 3 3
37 -8 75 -25 39 -17 81 -31 94 -31 l23 1 -21 17 c-12 10 -25 29 -29 43 -4 13
-14 32 -23 42 -14 16 -14 19 4 31 18 14 18 15 -9 27 -36 16 -65 68 -45 80 10
7 7 14 -14 31 -15 13 -34 40 -42 62 -19 45 -19 49 -6 41 17 -11 11 6 -13 34
-12 15 -29 47 -36 72 -8 24 -19 58 -26 74 -25 58 -56 176 -49 186 4 6 1 15 -5
19 -12 7 -50 138 -51 172 0 11 5 15 15 12 8 -4 15 -1 15 4 0 6 -9 13 -19 17
-20 6 -24 14 -36 73 l-7 33 49 -19 c26 -10 96 -38 155 -61z m-181 -111 c10
-41 18 -81 19 -87 0 -7 -41 13 -92 43 -105 64 -208 133 -208 139 0 2 31 -11
69 -30 72 -36 91 -42 91 -26 0 5 19 7 42 4 50 -7 45 8 -13 37 -21 11 -39 22
-39 24 0 2 25 -4 57 -13 l56 -17 18 -74z m375 34 l52 -18 7 -85 c23 -295 135
-638 333 -1024 2 -4 -8 -3 -23 3 -34 13 -38 13 -29 -2 5 -8 -1 -7 -16 3 -49
32 -215 433 -294 712 -56 195 -108 440 -93 434 7 -2 35 -13 63 -23z m259 -88
c272 -88 938 -274 1205 -336 222 -51 633 -117 880 -141 69 -7 136 -18 150 -25
l25 -13 -30 0 c-16 0 -122 8 -235 18 -190 17 -220 18 -209 7 8 -8 215 -47 312
-58 82 -10 95 -14 77 -23 -35 -19 -3 -34 84 -41 80 -7 90 -12 80 -38 -8 -20
-50 -21 -196 0 -296 40 -584 102 -1126 240 -206 52 -376 94 -378 92 -6 -6 605
-182 826 -238 217 -54 387 -90 560 -116 75 -11 120 -23 129 -33 10 -12 12 -41
7 -123 -7 -128 -27 -233 -68 -344 -35 -99 -9 -93 -273 -64 -278 32 -705 102
-821 135 -10 3 -5 -1 11 -9 74 -35 492 -115 803 -153 144 -18 222 -32 222 -39
0 -7 -8 -21 -17 -33 -18 -20 -19 -20 -235 -6 -487 33 -763 78 -1142 184 -182
51 -171 36 21 -28 134 -45 351 -101 483 -125 215 -40 567 -76 748 -76 50 0 92
-3 92 -6 0 -3 -11 -25 -25 -48 l-25 -43 -57 4 c-526 34 -1140 174 -1587 362
l-111 46 -57 110 c-140 269 -258 621 -297 885 -7 41 -14 90 -17 109 -4 25 -2
32 8 28 7 -3 90 -31 183 -61z m-661 -59 c53 -19 61 -26 68 -56 5 -18 7 -36 4
-39 -6 -5 -103 67 -131 98 -22 25 -15 24 59 -3z m-34 -79 c19 -12 55 -29 79
-38 36 -14 47 -25 57 -54 7 -20 10 -36 6 -36 -4 0 -49 34 -101 75 -93 74 -109
95 -41 53z m161 -176 c8 -9 30 -74 26 -78 -9 -9 -197 131 -197 147 0 8 159
-56 171 -69z m4256 -138 c-113 -259 -147 -314 -52 -83 75 180 118 274 122 262
2 -5 -30 -86 -70 -179z m-31 130 c-29 -21 -206 -88 -326 -123 -58 -17 -141
-42 -185 -55 -92 -27 -249 -46 -368 -45 l-82 1 90 14 c307 45 654 134 840 214
44 19 61 16 31 -6z m-4189 -114 c10 0 43 -59 43 -76 0 -2 -36 24 -80 57 -44
33 -80 62 -80 64 0 2 24 -7 53 -20 28 -14 58 -25 64 -25z m4146 -7 c-33 -77
-30 -74 -57 -61 -18 8 -36 6 -72 -5 -90 -29 -479 -83 -541 -75 -26 4 -25 5 12
15 22 6 89 18 149 28 174 27 457 106 502 140 32 25 34 17 7 -42z m-4100 -120
c10 -3 25 -19 33 -36 14 -26 14 -29 1 -24 -17 6 -117 77 -117 82 0 2 15 -1 33
-7 17 -5 40 -12 50 -15z m3986 -142 c-23 -56 -60 -139 -83 -184 l-41 -81 -62
-22 c-34 -11 -78 -33 -97 -48 -67 -51 -102 -60 -231 -61 -66 -1 -147 -5 -180
-9 -109 -15 -52 2 100 29 83 15 189 40 236 55 87 29 214 100 192 107 -7 3 -74
-16 -150 -40 -198 -65 -376 -102 -411 -88 -19 8 -42 9 -81 1 -30 -5 -108 -10
-175 -10 -125 0 -138 -3 -149 -32 -3 -10 -23 -24 -43 -33 -35 -15 -36 -16 -21
-39 15 -23 15 -26 -13 -65 -25 -34 -36 -41 -64 -41 l-33 0 28 97 c16 53 36
137 45 187 26 151 20 139 61 131 20 -3 46 -13 58 -21 13 -8 68 -18 134 -23 62
-5 115 -12 119 -16 4 -4 -50 -5 -120 -2 -106 4 -128 2 -128 -9 0 -8 -11 -19
-25 -24 -14 -5 -25 -14 -25 -20 0 -6 11 -15 25 -20 16 -6 25 -17 25 -31 0 -21
3 -22 98 -16 239 12 914 169 930 216 4 11 -3 12 -31 7 -23 -4 -36 -3 -39 5 -5
14 -106 2 -308 -36 -173 -33 -231 -39 -297 -30 l-58 8 43 8 c23 5 89 13 145
19 132 15 267 43 389 80 105 33 193 68 187 75 -3 2 -38 -5 -79 -15 -284 -74
-640 -118 -640 -79 0 8 24 11 230 29 183 15 388 65 525 125 27 13 51 22 52 21
2 -2 -16 -49 -38 -105z m-3912 4 c12 -9 30 -29 39 -47 15 -29 15 -31 -2 -24
-25 9 -143 99 -144 108 0 9 78 -18 107 -37z m3096 38 c-29 -2 -78 -2 -110 0
-32 2 -8 3 52 3 61 0 87 -1 58 -3z m-433 -53 c21 -5 25 -12 25 -46 0 -35 -3
-39 -27 -42 -35 -4 -36 -18 -3 -26 23 -6 25 -10 19 -49 -20 -133 -85 -370
-105 -383 -6 -3 -29 -3 -53 0 l-42 7 28 82 c42 125 61 255 56 374 l-5 103 41
-7 c23 -3 52 -9 66 -13z m283 -29 c91 -1 147 -5 147 -11 0 -6 -63 -10 -170
-10 -93 0 -170 -3 -170 -7 0 -3 7 -15 17 -25 15 -17 14 -18 -25 -18 l-42 0 0
43 0 44 48 -8 c26 -4 113 -8 195 -8z m-3128 -128 l93 -78 31 -130 c17 -71 33
-156 36 -188 4 -37 10 -55 17 -51 16 10 2 157 -22 234 -11 36 -20 66 -20 68 0
1 19 -7 41 -19 23 -11 84 -27 135 -34 105 -15 180 -49 207 -95 9 -15 17 -31
17 -34 0 -3 -20 -19 -44 -35 -24 -17 -67 -53 -95 -81 -80 -79 -60 -42 29 53
86 92 100 118 48 91 -56 -29 -161 -146 -208 -232 -80 -145 -76 -141 -144 -172
-89 -40 -110 -41 -114 -10 -2 17 11 43 37 77 96 128 90 237 -25 400 -59 85
-89 146 -108 220 -17 65 -20 93 -10 93 4 0 48 -35 99 -77z m3975 -157 c0 -14
-14 -36 -22 -36 -5 0 -6 5 -3 10 3 6 -3 10 -13 10 -28 0 -116 -99 -130 -147
-27 -89 -2 -228 72 -398 14 -33 26 -73 26 -88 0 -27 -43 -97 -60 -97 -5 0 -16
21 -26 48 -26 74 -60 145 -79 167 -16 19 -16 19 -10 -15 l5 -35 -47 47 c-51
50 -122 88 -163 87 -20 0 -14 -5 26 -23 56 -26 113 -72 147 -120 20 -29 18
-28 -28 11 -65 54 -145 91 -217 99 l-58 7 30 34 c31 35 38 53 20 53 -5 0 -39
-20 -74 -44 -44 -30 -72 -43 -85 -39 -18 5 -16 8 19 32 21 14 63 57 92 95 85
110 113 128 209 135 l80 6 49 56 c73 83 159 138 233 148 4 1 7 -1 7 -3z m-301
-135 c18 -11 -4 -17 -92 -25 -65 -5 -124 -35 -172 -86 -16 -18 -39 -36 -50
-40 -104 -42 -129 -50 -120 -43 128 112 239 176 335 192 75 12 83 12 99 2z
m-929 -136 c0 -2 -5 -16 -12 -30 -10 -22 -17 -25 -65 -25 -55 0 -61 6 -43 41
9 15 22 19 65 19 30 0 55 -2 55 -5z m80 -2 c0 -12 -43 -53 -57 -53 -16 0 -17
14 -3 41 10 18 60 28 60 12z m-120 -88 c0 -2 -10 -25 -22 -50 l-22 -45 -68 0
-68 0 31 50 31 50 59 0 c32 0 59 -2 59 -5z m61 -78 c32 -20 22 -28 -31 -26
-27 2 -50 6 -50 10 0 3 12 28 28 55 l27 49 3 -38 c2 -24 10 -42 23 -50z m519
72 c-58 -39 -154 -79 -191 -79 -23 0 -40 2 -37 5 6 6 218 82 233 84 6 0 3 -4
-5 -10z m-2663 -57 c0 -39 23 -90 72 -164 15 -24 32 -54 36 -68 4 -14 13 -35
21 -47 14 -22 13 -23 -20 -23 -60 0 -57 -37 4 -41 14 -1 -22 -5 -80 -9 -58 -5
-107 -6 -109 -4 -2 2 17 35 43 73 27 38 46 75 44 81 -4 12 -71 -62 -116 -126
l-21 -31 -118 -6 c-65 -2 -120 -3 -122 -1 -2 2 9 38 24 79 31 87 92 175 154
225 46 35 159 99 177 100 6 0 11 -17 11 -38z m516 -61 c194 -51 593 -126 817
-153 162 -20 690 -17 860 6 258 33 224 36 310 -31 101 -80 108 -90 65 -85 -18
2 -79 -1 -136 -7 l-102 -11 -52 57 c-62 68 -83 66 -31 -3 20 -26 36 -50 36
-54 0 -10 -279 -31 -497 -37 -160 -5 -193 -4 -197 8 -15 53 -39 109 -45 109
-5 0 -4 -25 2 -56 5 -30 8 -56 6 -57 -8 -5 -678 8 -683 13 -3 3 4 37 15 74 11
37 18 70 15 73 -5 5 -39 -64 -59 -119 -4 -10 -12 -18 -19 -18 -57 1 -450 41
-478 50 -19 5 -52 10 -72 10 -21 0 -38 5 -38 10 0 20 28 65 80 130 29 36 58
77 66 93 8 15 17 27 20 27 3 0 56 -13 117 -29z m2494 -194 c40 -44 49 -71 69
-210 l6 -48 -48 6 c-27 3 -114 10 -194 15 -181 13 -241 20 -235 30 3 4 21 11
42 15 45 8 113 42 113 55 0 6 -11 16 -25 22 -26 11 -34 28 -14 28 14 0 207
109 215 121 11 18 32 8 71 -34z m-3572 -4 c-31 -82 -29 -175 5 -231 l20 -32
-54 0 c-66 0 -116 17 -116 38 0 54 57 181 97 218 31 29 58 32 48 7z m-426
-100 c0 -5 -52 -48 -116 -98 -63 -49 -191 -154 -285 -231 l-171 -141 -81 -7
c-44 -3 -238 -8 -431 -11 l-350 -6 495 250 495 250 223 0 c122 1 222 -2 221
-6z m204 -52 c-5 -56 -4 -59 32 -100 53 -58 122 -78 225 -64 94 13 230 17 230
6 0 -4 -45 -64 -100 -132 l-99 -124 -496 -1 c-377 -2 -492 1 -483 9 7 7 99 82
203 166 105 85 230 187 279 227 l88 72 63 0 63 0 -5 -59z m3987 -13 c25 -34
30 -51 30 -96 0 -45 -3 -53 -16 -48 -9 3 -17 6 -20 6 -2 0 -13 18 -24 40 -21
41 -28 140 -10 140 5 0 23 -19 40 -42z m-2759 -154 l296 -6 -48 -122 -47 -121
-541 -3 c-298 -1 -541 1 -541 5 0 5 43 62 95 128 l94 120 58 6 c32 3 121 5
198 3 77 -2 273 -7 436 -10z m888 -19 c151 -3 276 -7 279 -9 6 -6 54 -198 50
-202 -7 -6 -958 -27 -964 -21 -6 6 31 113 73 214 l13 33 138 -5 c75 -3 260 -7
411 -10z m595 -25 c88 -6 252 -10 366 -10 l208 0 42 -65 c24 -36 41 -67 39
-69 -2 -2 -182 -11 -399 -20 -217 -9 -413 -17 -435 -18 l-40 -3 -27 100 c-15
55 -27 101 -28 102 0 2 26 0 58 -2 31 -3 129 -10 216 -15z m1016 -2 c47 -1
103 0 125 2 22 2 83 0 135 -5 52 -5 116 -9 143 -8 45 0 49 -3 92 -52 l44 -52
-147 -6 c-81 -4 -271 -9 -422 -13 l-275 -5 -42 63 c-23 35 -39 64 -34 66 24 8
203 19 246 15 28 -2 88 -5 135 -5z m-217 -345 c58 -87 130 -192 161 -233 l56
-75 -97 -8 c-54 -4 -143 -5 -198 -3 -55 3 -265 6 -466 6 l-366 0 -13 63 c-6
34 -27 127 -46 205 -19 79 -34 150 -34 156 0 10 91 16 368 28 202 8 404 16
449 16 l82 2 104 -157z m-1050 110 c7 -11 98 -415 95 -419 -8 -7 -1258 -15
-1258 -8 1 5 36 99 78 209 l77 200 100 3 c776 22 903 24 908 15z m-2213 -9 c0
-3 -39 -58 -87 -121 -49 -63 -110 -146 -138 -184 l-50 -69 -515 -4 c-283 -3
-542 -7 -575 -11 l-60 -6 105 103 c58 57 156 147 218 201 l113 97 494 0 c272
0 495 -3 495 -6z m1160 -10 c0 -6 -111 -309 -142 -387 l-11 -29 -246 7 c-135
3 -408 13 -606 21 -198 8 -368 14 -378 14 -19 0 -1 25 198 278 l80 101 553 1
c303 0 552 -3 552 -6z"/>
<path d="M2950 8312 c0 -16 147 -459 190 -570 65 -169 38 -67 -60 220 -100
296 -129 374 -130 350z"/>
<path d="M3096 8248 c6 -19 116 -259 243 -530 22 -49 43 -88 46 -88 7 0 -198
467 -255 581 -30 59 -47 78 -34 37z"/>
<path d="M3434 7956 c25 -57 92 -166 102 -166 12 0 -10 48 -59 133 -58 98 -79
114 -43 33z"/>
<path d="M3800 7995 c0 -14 151 -215 184 -244 48 -44 29 0 -38 89 -65 86 -146
172 -146 155z"/>
<path d="M3600 7850 c6 -11 13 -20 16 -20 2 0 0 9 -6 20 -6 11 -13 20 -16 20
-2 0 0 -9 6 -20z"/>
<path d="M3051 7778 c39 -141 72 -248 76 -244 3 2 -12 66 -32 143 -46 176 -45
173 -55 173 -5 0 0 -33 11 -72z"/>
<path d="M3427 7728 c37 -91 82 -178 92 -178 6 0 6 12 1 28 -10 37 -103 212
-112 212 -4 0 5 -28 19 -62z"/>
<path d="M3596 7690 c11 -43 91 -166 102 -156 6 6 -61 126 -88 157 l-21 24 7
-25z"/>
<path d="M4070 7653 c0 -5 12 -20 26 -34 24 -21 26 -22 16 -3 -13 25 -42 50
-42 37z"/>
<path d="M3013 7595 c6 -25 12 -43 15 -41 7 7 -9 86 -17 86 -5 0 -4 -20 2 -45z"/>
<path d="M3421 7533 c-1 -18 48 -127 55 -121 3 3 -8 34 -25 69 -16 35 -30 59
-30 52z"/>
<path d="M2805 7411 c9 -75 32 -174 34 -142 2 48 -22 201 -31 201 -6 0 -7 -23
-3 -59z"/>
<path d="M4535 7412 c27 -29 53 -52 59 -52 13 0 -22 36 -69 73 -38 29 -38 28
10 -21z"/>
<path d="M4650 7292 c0 -5 18 -28 40 -52 41 -45 63 -50 36 -8 -18 27 -76 73
-76 60z"/>
<path d="M2841 7143 c0 -10 7 -40 14 -68 10 -41 13 -45 14 -20 1 44 -10 105
-20 105 -5 0 -9 -8 -8 -17z"/>
<path d="M7810 7109 c-40 -16 -80 -60 -91 -101 -32 -121 94 -222 199 -158 34
21 45 38 13 20 -26 -13 -87 -13 -114 1 -62 32 -78 116 -31 162 33 33 57 41 99
33 37 -7 72 -43 82 -85 9 -40 16 -46 24 -23 9 24 -3 73 -26 109 -29 44 -101
63 -155 42z"/>
<path d="M7225 6722 c-67 -22 -145 -100 -168 -166 -18 -52 -23 -152 -8 -174 5
-9 10 8 13 46 7 76 35 139 83 185 109 106 289 83 370 -47 27 -44 30 -58 30
-126 0 -68 -3 -82 -30 -126 -19 -30 -49 -60 -79 -79 -45 -27 -57 -30 -135 -30
-47 0 -99 4 -116 8 l-30 9 25 -21 c63 -51 191 -53 280 -5 127 69 181 221 130
358 -57 150 -209 220 -365 168z"/>
<path d="M7279 6599 c-28 -28 -21 -40 39 -59 65 -21 81 -35 105 -89 13 -30 17
-53 12 -79 -6 -31 -5 -34 9 -23 23 19 39 79 33 127 -11 105 -137 184 -198 123z
m106 -29 c18 -11 36 -27 39 -35 7 -20 2 -19 -44 10 -22 14 -47 25 -55 25 -9 0
-13 5 -10 10 10 16 35 12 70 -10z"/>
<path d="M5575 6483 c-76 -40 -109 -99 -103 -184 5 -70 41 -122 102 -150 56
-25 103 -24 162 6 135 67 135 265 0 326 -50 23 -121 24 -161 2z m172 -61 c62
-44 81 -143 38 -208 -22 -35 -98 -68 -138 -60 -110 22 -169 145 -112 233 9 13
30 33 48 44 42 26 121 22 164 -9z"/>
<path d="M5578 6400 c-29 -22 -40 -63 -27 -97 13 -35 29 -28 29 13 0 27 7 43
30 64 17 15 30 31 30 34 0 13 -39 5 -62 -14z"/>
<path d="M8088 5936 c-128 -46 -202 -132 -228 -262 -29 -148 53 -304 198 -375
68 -34 216 -34 284 -1 103 51 174 158 185 279 5 49 3 64 -5 59 -7 -4 -12 -16
-12 -26 0 -40 -42 -130 -82 -175 -140 -159 -383 -133 -481 50 -31 58 -31 183
1 242 88 166 282 220 438 122 25 -17 49 -28 52 -24 12 12 -88 93 -134 109 -57
19 -164 20 -216 2z"/>
<path d="M8242 5819 c-12 -4 -27 -20 -32 -35 -15 -38 8 -69 63 -82 24 -6 56
-21 70 -32 15 -12 27 -17 27 -12 0 16 -44 49 -92 70 -48 21 -58 38 -36 60 23
23 68 14 105 -23 31 -31 35 -40 33 -82 -4 -71 -2 -82 10 -63 17 26 11 103 -10
137 -32 53 -92 80 -138 62z"/>
<path d="M2266 8920 c-88 -94 -127 -214 -125 -385 l2 -110 8 85 c21 198 56
309 130 407 22 29 38 53 36 53 -2 0 -25 -23 -51 -50z"/>
<path d="M2326 4765 c-82 -31 -146 -94 -177 -175 -28 -73 -24 -184 9 -251 67
-137 227 -208 373 -166 56 17 130 71 150 110 9 17 3 14 -22 -10 -110 -104
-290 -97 -391 15 -69 77 -92 170 -64 266 21 70 81 140 146 169 61 27 160 27
223 -1 64 -28 57 -6 -8 28 -61 31 -178 38 -239 15z"/>
<path d="M2279 4534 c-23 -28 -24 -116 0 -162 45 -88 163 -127 249 -83 48 24
57 46 15 34 -80 -22 -152 2 -207 70 -27 34 -31 47 -31 98 0 62 -4 69 -26 43z"/>
<path d="M1443 2123 c9 -2 25 -2 35 0 9 3 1 5 -18 5 -19 0 -27 -2 -17 -5z"/>
<path d="M2260 1538 c1 -40 36 -103 76 -136 79 -65 207 -82 299 -38 100 48
120 84 24 45 -81 -34 -197 -32 -266 4 -57 29 -86 61 -103 113 -13 39 -30 45
-30 12z"/>
<path d="M6863 1468 c-5 -7 -21 -34 -36 -59 -15 -26 -50 -67 -78 -93 -94 -84
-191 -93 -327 -31 -64 29 -62 29 -62 11 0 -8 15 -26 33 -40 84 -64 218 -77
312 -32 80 40 150 131 170 224 7 34 4 40 -12 20z"/>
<path d="M2834 1371 c22 -42 109 -116 177 -150 98 -49 190 -65 348 -58 161 6
266 33 406 102 89 44 191 112 182 121 -3 3 -58 -17 -123 -45 -235 -98 -365
-131 -521 -131 -180 0 -312 45 -417 140 -29 28 -57 50 -60 50 -4 0 0 -13 8
-29z"/>
<path d="M4791 1253 c116 -194 281 -321 506 -390 78 -23 105 -27 238 -27 169
-1 230 11 350 69 93 45 179 115 242 200 29 39 53 74 53 78 0 5 -33 -21 -72
-58 -212 -196 -432 -271 -678 -231 -235 38 -395 125 -560 304 -47 51 -88 92
-93 92 -5 0 2 -17 14 -37z"/>
<path d="M4016 6679 c-10 -24 -40 -109 -67 -188 -27 -79 -54 -152 -60 -163
-24 -45 2 -25 44 34 55 77 93 151 123 242 27 79 28 86 13 86 -7 0 -17 7 -24
16 -10 15 -14 11 -29 -27z"/>
<path d="M4114 6624 c-34 -98 -143 -331 -190 -406 -36 -57 -16 -45 46 27 30
35 56 62 58 60 2 -1 -9 -26 -23 -55 -14 -29 -24 -54 -22 -56 8 -9 97 110 133
179 28 54 84 196 84 214 0 3 -9 1 -20 -2 -14 -4 -20 -2 -20 8 0 8 -9 22 -20
32 -19 17 -20 17 -26 -1z"/>
<path d="M4332 6489 c-15 -146 -14 -164 4 -114 19 50 29 172 17 204 -8 19 -12
0 -21 -90z"/>
<path d="M2924 5790 c-12 -5 -25 -14 -29 -20 -8 -13 5 -10 75 16 l35 13 -30 0
c-16 0 -40 -4 -51 -9z"/>
<path d="M2944 5729 c-23 -11 -50 -29 -60 -40 -13 -15 -5 -13 42 11 32 16 64
30 71 30 6 0 15 5 18 10 10 17 -28 11 -71 -11z"/>
<path d="M2955 5662 c-62 -38 -62 -57 0 -22 74 41 73 40 49 40 -10 0 -32 -8
-49 -18z"/>
<path d="M2940 5571 c-19 -16 -33 -31 -30 -34 3 -3 23 10 45 28 22 19 35 34
30 35 -6 0 -26 -13 -45 -29z"/>
<path d="M2719 5302 c51 -72 237 -227 298 -248 24 -9 19 -5 -127 123 -63 55
-126 112 -139 127 -34 37 -59 35 -32 -2z"/>
<path d="M3120 5001 c0 -31 166 -126 352 -201 145 -58 286 -105 294 -97 3 2
-51 28 -118 57 -68 29 -204 93 -302 142 -197 99 -226 111 -226 99z"/>
<path d="M4083 4595 c72 -41 411 -153 637 -210 96 -25 292 -65 314 -65 26 0
-19 14 -224 70 -123 33 -335 94 -470 136 -293 89 -293 89 -257 69z"/>
<path d="M4172 5138 c-7 -7 -12 -18 -12 -25 0 -10 6 -10 24 2 20 13 29 14 46
5 26 -14 37 -6 20 15 -15 18 -61 20 -78 3z"/>
<path d="M4755 5069 c-40 -36 -59 -90 -46 -134 l9 -30 1 38 c1 48 21 87 63
122 27 23 39 26 72 22 26 -4 35 -2 25 4 -31 20 -87 10 -124 -22z"/>
<path d="M4445 4975 c-37 -36 -30 -48 11 -20 20 14 43 25 50 25 8 0 14 5 14
10 0 20 -51 10 -75 -15z"/>
<path d="M6370 4670 c-20 -20 -27 -60 -11 -60 5 0 13 9 16 21 4 11 18 25 31
31 13 6 24 15 24 20 0 16 -40 8 -60 -12z"/>
<path d="M6512 4605 c-17 -38 -15 -61 11 -90 28 -33 87 -44 110 -20 25 24 21
36 -10 30 -26 -5 -26 -5 -5 5 23 10 39 36 28 47 -3 3 -14 -1 -24 -10 -38 -34
-82 -15 -82 35 0 35 -13 36 -28 3z"/>
<path d="M6277 4566 c-11 -28 10 -92 42 -124 57 -57 163 -65 215 -17 23 21 34
45 21 45 -2 0 -21 -12 -42 -26 -31 -21 -46 -25 -82 -21 -68 7 -126 61 -140
128 -6 27 -8 30 -14 15z"/>
<path d="M7100 4489 c0 -44 27 -72 66 -67 32 4 46 28 16 28 -35 0 -54 12 -68
44 l-13 31 -1 -36z"/>
<path d="M5626 5055 c10 -26 137 -119 154 -113 8 3 -142 128 -154 128 -3 0 -3
-7 0 -15z"/>
<path d="M3917 4973 c-13 -12 -7 -23 12 -23 28 0 52 11 45 21 -6 10 -48 12
-57 2z"/>
<path d="M3779 3314 c-28 -32 -58 -99 -80 -181 -12 -43 -34 -99 -50 -126 -31
-51 -35 -62 -19 -52 8 5 195 276 243 352 16 26 -23 13 -59 -19 -31 -27 -35
-29 -25 -10 7 13 11 30 9 39 -3 13 -5 12 -19 -3z"/>
<path d="M7200 3208 l-22 -33 6 30 c6 28 6 29 -9 10 -18 -23 -35 -79 -35 -118
0 -71 45 -168 70 -152 5 3 6 27 3 53 -3 26 0 89 6 141 7 51 10 95 8 98 -3 2
-14 -11 -27 -29z"/>
<path d="M6945 3045 c17 -8 35 -14 42 -15 6 0 41 -22 77 -50 36 -27 68 -50 71
-50 17 0 0 32 -32 60 -48 42 -109 70 -153 69 l-35 -1 30 -13z"/>
</g>
</svg>
